<?xml version="1.0" encoding="UTF-8"?><svg id="Layer_2" xmlns="http://www.w3.org/2000/svg" viewBox="0 0 429.63 144.16"><defs><style>.cls-1{letter-spacing:0em;}.cls-2{fill:#fe7c00;}.cls-3{fill:#7fdf09;}.cls-4{letter-spacing:.04em;}.cls-5{font-family:PlusJakartaSans-Regular, 'Plus Jakarta Sans';font-size:26.51px;}</style></defs><g id="design"><path class="cls-3" d="m48.71,18.11c.02-.53-.32-.7-1.48-.71-4.01-.03-7.96.07-11.79.71-.15.07-.3.1-.45,0-.01,0,.15-.07.23-.11.5-1.1,1.36-2.16,1.69-3.29,1.38-4.8-2.54-8.8-8.5-12.5-1.21-.75-2.47-1.48-3.71-2.22h-.81c-3.41,1.83-6.47,3.78-8.77,5.97-4.09,3.88-4.74,7.87-1.34,12.14-4.01-.72-7.9-.91-11.88-.85-1.31.02-1.95.1-1.88.82.21,2.42-.49,4.87.71,7.27,2.26,4.52,8.39,7.35,17.87,8.6,1.31.17,1.61.38,1.47.96-.18.75-.14,1.51-.2,2.27,1.48-.05,2.96-.11,4.44-.16v.07c1.34.1,2.7.2,4.06.29.04-.95-.45-2,.26-2.82.77-.9,3.47-.68,5.24-1.08,9.48-2.13,14.51-5.6,14.81-10.52.1-1.61-.02-3.22.04-4.84Z"/><path class="cls-2" d="m39.6,41.97c-3.04-2.6-6.82-4.01-10.89-4.96-1.47-.1-2.93-.2-4.4-.29,0,0,0,0,0,0,0,0-.01,0-.02,0h-.02s0,0,0,0c-1.47.1-2.93.2-4.4.29-4.07.96-7.86,2.37-10.89,4.96-5.05,4.33-6.87,9.58-6.11,15.53.72,5.67,1.46,11.34,2.36,16.99,1.07,6.66,2.28,13.3,3.51,19.94,1.21,6.58,2.41,13.16,3.81,19.71,1.83,8.55,3.42,17.15,6.45,25.48.34.92.63,1.87,1.13,2.72.83,1.43,2.36,1.87,4.15,1.82h0s.02,0,.02,0c0,0,.02,0,.02,0h0c1.78.05,3.32-.39,4.15-1.82.5-.86.79-1.81,1.13-2.72,3.04-8.33,4.63-16.93,6.45-25.48,1.4-6.55,2.6-13.13,3.81-19.71,1.22-6.64,2.44-13.28,3.51-19.94.9-5.65,1.64-11.32,2.36-16.99.76-5.95-1.06-11.2-6.11-15.53Z"/><path d="m89.63,94.65c-2.88,0-5.59-.53-8.11-1.57-2.53-1.05-4.71-2.54-6.54-4.47-1.83-1.93-3.2-4.22-4.1-6.85l7.83-3.52c1.15,2.51,2.75,4.49,4.78,5.92,2.04,1.44,4.29,2.16,6.76,2.16,1.93,0,3.49-.44,4.66-1.33,1.17-.88,1.76-2.07,1.76-3.55,0-2.14-1.36-3.66-4.07-4.57l-9.01-2.96c-7.36-2.43-11.04-6.77-11.04-13.02,0-2.71.67-5.1,2.01-7.16,1.34-2.06,3.21-3.66,5.61-4.81,2.41-1.15,5.17-1.73,8.3-1.73,4.15,0,7.81,1.04,10.95,3.11,3.15,2.08,5.36,4.93,6.63,8.55l-7.77,3.52c-.86-2.14-2.16-3.82-3.89-5.03s-3.7-1.82-5.92-1.82c-1.93,0-3.5.46-4.69,1.39s-1.79,2.13-1.79,3.61c0,2.18,1.4,3.74,4.2,4.69l8.82,2.84c7.36,2.39,11.04,6.67,11.04,12.83,0,2.67-.7,5.05-2.1,7.13s-3.32,3.7-5.77,4.87c-2.45,1.17-5.3,1.76-8.54,1.76Z"/><path d="m135.9,94.65c-3.29,0-6.34-.6-9.16-1.79-2.82-1.19-5.28-2.86-7.37-5-2.1-2.14-3.73-4.65-4.91-7.53-1.17-2.88-1.76-6.03-1.76-9.44s.57-6.57,1.73-9.47c1.15-2.9,2.78-5.41,4.87-7.53,2.1-2.12,4.56-3.76,7.37-4.94,2.82-1.17,5.89-1.76,9.22-1.76s6.32.55,8.98,1.66c2.65,1.11,4.9,2.59,6.76,4.44,1.85,1.85,3.17,3.91,3.95,6.17l-8.45,4.07c-.78-2.22-2.15-4.06-4.1-5.52-1.95-1.46-4.33-2.19-7.13-2.19s-5.1.64-7.16,1.91c-2.06,1.28-3.65,3.03-4.78,5.28-1.13,2.24-1.7,4.86-1.7,7.87s.57,5.64,1.7,7.9c1.13,2.26,2.73,4.03,4.78,5.31,2.06,1.28,4.44,1.91,7.16,1.91s5.17-.73,7.13-2.19c1.95-1.46,3.32-3.3,4.1-5.52l8.45,4.07c-.78,2.26-2.1,4.32-3.95,6.17-1.85,1.85-4.1,3.33-6.76,4.44-2.65,1.11-5.65,1.67-8.98,1.67Z"/><path d="m162.93,93.91v-45.96h17.58c3.17,0,5.97.56,8.42,1.66,2.45,1.11,4.37,2.76,5.77,4.94,1.4,2.18,2.1,4.87,2.1,8.08s-.72,5.79-2.16,7.99c-1.44,2.2-3.37,3.86-5.8,4.97l10.49,18.32h-10.73l-9.32-16.66h-6.79v16.66h-9.56Zm9.56-24.99h8.08c2.02,0,3.63-.57,4.84-1.73,1.21-1.15,1.82-2.67,1.82-4.57s-.61-3.48-1.82-4.63c-1.21-1.15-2.83-1.73-4.84-1.73h-8.08v12.65Z"/><path d="m201.92,93.91l15.55-45.96h12.71l15.55,45.96h-10.43l-3.09-9.38h-16.84l-3.09,9.38h-10.37Zm16.1-17.71h11.54l-5.74-17.71-5.8,17.71Z"/><path d="m256.89,93.91v-37.64h-11.66v-8.33h32.7v8.33h-11.48v37.64h-9.56Z"/><path d="m303.91,94.65c-3.29,0-6.34-.6-9.16-1.79-2.82-1.19-5.28-2.86-7.37-5-2.1-2.14-3.73-4.65-4.91-7.53-1.17-2.88-1.76-6.03-1.76-9.44s.57-6.57,1.73-9.47c1.15-2.9,2.78-5.41,4.87-7.53,2.1-2.12,4.56-3.76,7.37-4.94,2.82-1.17,5.89-1.76,9.22-1.76s6.32.55,8.98,1.66c2.65,1.11,4.9,2.59,6.76,4.44,1.85,1.85,3.17,3.91,3.95,6.17l-8.45,4.07c-.78-2.22-2.15-4.06-4.1-5.52-1.95-1.46-4.33-2.19-7.13-2.19s-5.1.64-7.16,1.91c-2.06,1.28-3.65,3.03-4.78,5.28-1.13,2.24-1.7,4.86-1.7,7.87s.57,5.64,1.7,7.9c1.13,2.26,2.73,4.03,4.78,5.31,2.06,1.28,4.44,1.91,7.16,1.91s5.17-.73,7.13-2.19c1.95-1.46,3.32-3.3,4.1-5.52l8.45,4.07c-.78,2.26-2.1,4.32-3.95,6.17-1.85,1.85-4.1,3.33-6.76,4.44-2.65,1.11-5.65,1.67-8.98,1.67Z"/><path d="m330.93,93.91v-45.96h9.56v19.87h17.89v-19.87h9.56v45.96h-9.56v-17.77h-17.89v17.77h-9.56Z"/><path d="m377.33,93.91v-45.96h9.56v45.96h-9.56Z"/><path d="m396.27,93.91v-45.96h30.91v8.33h-21.35v10.43h20.11v8.33h-20.11v10.55h21.35v8.33h-30.91Z"/><text class="cls-5" transform="translate(68.77 126.29)"><tspan class="cls-4" x="0" y="0">MAKE SAFETY RE</tspan><tspan class="cls-1" x="226.95" y="0">W</tspan><tspan class="cls-4" x="253.09" y="0">ARDING</tspan></text></g></svg>